# This file uses centimeters as units for non-parametric coordinates.

mtllib sun5.mtl
g default
v 7.707680 -1.087975 0.362180
v 6.782160 -5.375680 -0.168200
v 13.866251 -4.378150 -2.190230
v 7.168630 -1.725195 -1.447460
v 6.640475 -4.171990 -1.750120
v -7.669830 0.488050 -0.291980
v -6.828270 4.825050 -0.224750
v -13.963395 3.988535 -2.137415
v -7.204550 1.390665 -2.006690
v -6.724315 3.865590 -1.968325
v 6.597220 4.913435 -0.291980
v 7.927130 0.700460 -0.224750
v 13.798405 4.840260 -2.137415
v 6.619030 3.898190 -2.006690
v 7.377945 1.494045 -1.968325
v -6.786295 -5.823160 -0.291980
v -7.734415 -1.508200 -0.224750
v -13.952135 -5.106770 -2.137415
v -6.717295 -4.810025 -2.006690
v -7.258340 -2.347680 -1.968325
v 2.225490 -8.338225 -0.218270
v -2.192375 -8.327595 -0.286645
v 0.026845 -15.216080 -1.987195
v 1.304535 -8.087605 -1.967690
v -1.216530 -8.081540 -2.006705
v -2.113320 8.639215 -0.218270
v 2.304560 8.639215 -0.286645
v 0.068770 15.522341 -1.987195
v -1.191765 8.390810 -1.967690
v 1.329310 8.390810 -2.006705
v -5.829280 -8.243300 -2.015390
v -2.890355 -8.243300 3.074980
v 2.987500 -8.243300 3.074980
v 5.926425 -8.243300 -2.015390
v -9.461995 -3.243300 -2.015390
v -4.706710 -3.243300 6.221005
v 4.803855 -3.243300 6.221005
v 9.559140 -3.243300 -2.015390
v -9.461995 2.937040 -2.015390
v -4.706710 2.937040 6.221005
v 4.803855 2.937040 6.221005
v 9.559140 2.937040 -2.015390
v -5.829280 7.937040 -2.015390
v -2.890355 7.937040 3.074980
v 2.987500 7.937040 3.074980
v 5.926425 7.937040 -2.015390
v 0.048570 -10.153130 -2.015390
v 0.048570 9.846870 -2.015390
vt 0.375000 0.375000
vt 0.625000 0.125000
vt 0.750000 0.250000
vt 0.500000 0.500000
vt 0.500000 0.500000
vt 0.625000 0.500000
vt 0.500000 1.000000
vt 0.687500 0.500000
vt 0.437500 0.500000
vt 0.375000 0.375000
vt 0.625000 0.125000
vt 0.750000 0.250000
vt 0.500000 0.500000
vt 0.500000 0.500000
vt 0.625000 0.500000
vt 0.500000 1.000000
vt 0.687500 0.500000
vt 0.437500 0.500000
vt 0.375000 0.375000
vt 0.625000 0.125000
vt 0.750000 0.250000
vt 0.500000 0.500000
vt 0.500000 0.500000
vt 0.625000 0.500000
vt 0.500000 1.000000
vt 0.687500 0.500000
vt 0.437500 0.500000
vt 0.375000 0.375000
vt 0.625000 0.125000
vt 0.750000 0.250000
vt 0.500000 0.500000
vt 0.500000 0.500000
vt 0.625000 0.500000
vt 0.500000 1.000000
vt 0.687500 0.500000
vt 0.437500 0.500000
vt 0.375000 0.375000
vt 0.625000 0.125000
vt 0.750000 0.250000
vt 0.500000 0.500000
vt 0.500000 0.500000
vt 0.625000 0.500000
vt 0.500000 1.000000
vt 0.687500 0.500000
vt 0.437500 0.500000
vt 0.375000 0.375000
vt 0.625000 0.125000
vt 0.750000 0.250000
vt 0.500000 0.500000
vt 0.500000 0.500000
vt 0.625000 0.500000
vt 0.500000 1.000000
vt 0.687500 0.500000
vt 0.437500 0.500000
vt 0.333333 0.200000
vt 0.500000 0.200000
vt 0.500000 0.400000
vt 0.333333 0.400000
vt 0.666667 0.200000
vt 0.666667 0.400000
vt 0.833333 0.200000
vt 0.833333 0.400000
vt 0.500000 0.600000
vt 0.333333 0.600000
vt 0.666667 0.600000
vt 0.833333 0.600000
vt 0.500000 0.800000
vt 0.333333 0.800000
vt 0.666667 0.800000
vt 0.833333 0.800000
vt 0.416667 0.000000
vt 0.583333 0.000000
vt 0.750000 0.000000
vt 0.416667 1.000000
vt 0.583333 1.000000
vt 0.750000 1.000000
vn -0.958336 0.179362 0.222309
vn -0.958336 0.179362 0.222309
vn -0.958336 0.179362 0.222309
vn -0.958336 0.179362 0.222309
vn 0.293299 -0.179465 0.939025
vn 0.293299 -0.179465 0.939025
vn 0.293299 -0.179465 0.939025
vn -0.059350 -0.796967 -0.601100
vn -0.059350 -0.796967 -0.601100
vn -0.059350 -0.796967 -0.601100
vn 0.300091 0.868232 -0.395119
vn 0.300091 0.868232 -0.395119
vn 0.300091 0.868232 -0.395119
vn -0.056417 0.134552 -0.989299
vn -0.056417 0.134552 -0.989299
vn -0.056417 0.134552 -0.989299
vn 0.968169 -0.190383 0.162490
vn 0.968169 -0.190383 0.162490
vn 0.968169 -0.190383 0.162490
vn 0.968169 -0.190383 0.162490
vn -0.262692 0.036026 0.964207
vn -0.262692 0.036026 0.964207
vn -0.262692 0.036026 0.964207
vn 0.026115 0.876468 -0.480751
vn 0.026115 0.876468 -0.480751
vn 0.026115 0.876468 -0.480751
vn -0.300716 -0.807875 -0.506861
vn -0.300716 -0.807875 -0.506861
vn -0.300716 -0.807875 -0.506861
vn 0.023536 0.010930 -0.999663
vn 0.023536 0.010930 -0.999663
vn 0.023536 0.010930 -0.999663
vn -0.941683 -0.294669 0.162490
vn -0.941683 -0.294669 0.162490
vn -0.941683 -0.294669 0.162490
vn -0.941683 -0.294669 0.162490
vn 0.248047 0.093688 0.964207
vn 0.248047 0.093688 0.964207
vn 0.248047 0.093688 0.964207
vn 0.395273 -0.782712 -0.480750
vn 0.395273 -0.782712 -0.480751
vn 0.395273 -0.782712 -0.480750
vn -0.121219 0.853463 -0.506860
vn -0.121219 0.853463 -0.506860
vn -0.121219 0.853463 -0.506860
vn -0.015468 -0.020836 -0.999663
vn -0.015468 -0.020836 -0.999663
vn -0.015468 -0.020836 -0.999663
vn 0.964248 0.209341 0.162490
vn 0.964248 0.209341 0.162490
vn 0.964247 0.209341 0.162491
vn 0.964248 0.209341 0.162490
vn -0.255427 -0.071148 0.964207
vn -0.255427 -0.071148 0.964207
vn -0.255427 -0.071148 0.964207
vn -0.323748 0.814903 -0.480751
vn -0.323748 0.814903 -0.480751
vn -0.323748 0.814903 -0.480751
vn 0.044469 -0.860880 -0.506861
vn 0.044469 -0.860880 -0.506861
vn 0.044469 -0.860880 -0.506861
vn 0.017268 0.019370 -0.999663
vn 0.017268 0.019370 -0.999663
vn 0.017268 0.019370 -0.999663
vn 0.000188 0.989908 0.141713
vn 0.000188 0.989908 0.141713
vn 0.000188 0.989908 0.141713
vn 0.000188 0.989908 0.141713
vn -0.015593 -0.244376 0.969555
vn -0.015593 -0.244376 0.969555
vn -0.015593 -0.244376 0.969555
vn -0.850644 -0.149625 -0.504001
vn -0.850644 -0.149625 -0.504001
vn -0.850644 -0.149625 -0.504001
vn 0.865103 -0.153752 -0.477448
vn 0.865103 -0.153752 -0.477448
vn 0.865103 -0.153752 -0.477448
vn 0.015474 -0.000037 -0.999880
vn 0.015474 -0.000037 -0.999880
vn 0.015474 -0.000037 -0.999880
vn 0.002193 -0.989905 0.141713
vn 0.002193 -0.989905 0.141713
vn 0.002193 -0.989905 0.141713
vn 0.002193 -0.989905 0.141713
vn 0.015005 0.244413 0.969555
vn 0.015005 0.244413 0.969555
vn 0.015005 0.244413 0.969555
vn 0.850282 0.151671 -0.504001
vn 0.850282 0.151671 -0.504001
vn 0.850282 0.151671 -0.504001
vn -0.865471 0.151671 -0.477447
vn -0.865471 0.151671 -0.477447
vn -0.865471 0.151671 -0.477447
vn -0.015474 0.000000 -0.999880
vn -0.015474 0.000000 -0.999880
vn -0.015474 0.000000 -0.999880
vn -0.733000 -0.532555 0.423197
vn -0.733000 -0.532555 0.423197
vn -0.733000 -0.532556 0.423197
vn -0.733000 -0.532556 0.423197
vn 0.000000 -0.532555 0.846395
vn 0.000000 -0.532555 0.846395
vn 0.000000 -0.532555 0.846395
vn 0.000000 -0.532555 0.846395
vn 0.733000 -0.532555 0.423198
vn 0.733000 -0.532555 0.423198
vn 0.733000 -0.532555 0.423198
vn 0.733000 -0.532555 0.423198
vn -0.866026 0.000000 0.500000
vn -0.866026 0.000000 0.500000
vn -0.866026 0.000000 0.500000
vn -0.866026 0.000000 0.500000
vn 0.000000 0.000000 1.000000
vn 0.000000 0.000000 1.000000
vn 0.000000 0.000000 1.000000
vn 0.000000 0.000000 1.000000
vn 0.866025 0.000000 0.500000
vn 0.866025 0.000000 0.500000
vn 0.866025 0.000000 0.500000
vn 0.866025 0.000000 0.500000
vn -0.733000 0.532556 0.423197
vn -0.733000 0.532556 0.423197
vn -0.733000 0.532556 0.423197
vn -0.733000 0.532556 0.423197
vn 0.000000 0.532555 0.846395
vn 0.000000 0.532555 0.846395
vn 0.000000 0.532555 0.846395
vn 0.000000 0.532555 0.846395
vn 0.733000 0.532555 0.423198
vn 0.733000 0.532555 0.423198
vn 0.733000 0.532555 0.423198
vn 0.733000 0.532555 0.423198
vn -0.304213 -0.936272 0.175638
vn -0.304213 -0.936272 0.175638
vn -0.304213 -0.936272 0.175638
vn 0.000000 -0.936272 0.351275
vn 0.000000 -0.936272 0.351275
vn 0.000000 -0.936272 0.351275
vn 0.304213 -0.936272 0.175638
vn 0.304213 -0.936272 0.175638
vn 0.304213 -0.936272 0.175638
vn -0.304213 0.936272 0.175638
vn -0.304213 0.936272 0.175638
vn -0.304213 0.936272 0.175638
vn 0.000000 0.936272 0.351275
vn 0.000000 0.936272 0.351275
vn 0.000000 0.936272 0.351275
vn 0.304213 0.936272 0.175638
vn 0.304213 0.936272 0.175638
vn 0.304213 0.936272 0.175638
vn 0.000000 0.000000 -1.000000
vn 0.000000 0.000000 -1.000000
vn 0.000000 0.000000 -1.000000
vn 0.000000 0.000000 -1.000000
vn 0.000000 0.000000 -1.000000
vn 0.000000 0.000000 -1.000000
vn 0.000000 0.000000 -1.000000
vn 0.000000 0.000000 -1.000000
vn 0.000000 0.000000 -1.000000
vn 0.000000 0.000000 -1.000000
s off
g pCone7
usemtl initialShadingGroup
f 4/1/1 5/2/2 2/3/3 1/4/4
f 1/5/5 2/6/6 3/7/7
f 2/6/8 5/8/9 3/7/10
f 3/7/11 4/9/12 1/5/13
f 5/2/14 4/9/15 3/7/16
f 9/10/17 10/11/18 7/12/19 6/13/20
f 6/14/21 7/15/22 8/16/23
f 7/15/24 10/17/25 8/16/26
f 8/16/27 9/18/28 6/14/29
f 10/11/30 9/18/31 8/16/32
f 14/19/33 15/20/34 12/21/35 11/22/36
f 11/23/37 12/24/38 13/25/39
f 12/24/40 15/26/41 13/25/42
f 13/25/43 14/27/44 11/23/45
f 15/20/46 14/27/47 13/25/48
f 19/28/49 20/29/50 17/30/51 16/31/52
f 16/32/53 17/33/54 18/34/55
f 17/33/56 20/35/57 18/34/58
f 18/34/59 19/36/60 16/32/61
f 20/29/62 19/36/63 18/34/64
f 24/37/65 25/38/66 22/39/67 21/40/68
f 21/41/69 22/42/70 23/43/71
f 22/42/72 25/44/73 23/43/74
f 23/43/75 24/45/76 21/41/77
f 25/38/78 24/45/79 23/43/80
f 29/46/81 30/47/82 27/48/83 26/49/84
f 26/50/85 27/51/86 28/52/87
f 27/51/88 30/53/89 28/52/90
f 28/52/91 29/54/92 26/50/93
f 30/47/94 29/54/95 28/52/96
f 31/55/97 32/56/98 36/57/99 35/58/100
f 32/56/101 33/59/102 37/60/103 36/57/104
f 33/59/105 34/61/106 38/62/107 37/60/108
f 35/58/109 36/57/110 40/63/111 39/64/112
f 36/57/113 37/60/114 41/65/115 40/63/116
f 37/60/117 38/62/118 42/66/119 41/65/120
f 39/64/121 40/63/122 44/67/123 43/68/124
f 40/63/125 41/65/126 45/69/127 44/67/128
f 41/65/129 42/66/130 46/70/131 45/69/132
f 32/56/133 31/55/134 47/71/135
f 33/59/136 32/56/137 47/72/138
f 34/61/139 33/59/140 47/73/141
f 43/68/142 44/67/143 48/74/144
f 44/67/145 45/69/146 48/75/147
f 45/69/148 46/70/149 48/76/150
f 35/58/151 39/64/152 43/68/153 48/76/154 46/70/155 42/66/156 38/62/157 34/61/158 47/71/159 31/55/160
